<?xml version="1.0" encoding="UTF-8" standalone="no"?>
<!-- Created with Inkscape (http://www.inkscape.org/) -->

<svg
   xmlns:dc="http://purl.org/dc/elements/1.1/"
   xmlns:cc="http://creativecommons.org/ns#"
   xmlns:rdf="http://www.w3.org/1999/02/22-rdf-syntax-ns#"
   xmlns:svg="http://www.w3.org/2000/svg"
   xmlns="http://www.w3.org/2000/svg"
   xmlns:sodipodi="http://sodipodi.sourceforge.net/DTD/sodipodi-0.dtd"
   xmlns:inkscape="http://www.inkscape.org/namespaces/inkscape"
   width="61.999992mm"
   height="89.274918mm"
   viewBox="0 0 219.68503 316.32844"
   id="svg2"
   version="1.1"
   inkscape:version="0.91 r13725"
   sodipodi:docname="card-back.svg"
   inkscape:export-filename="/home/gbourel/trivial-01a.png"
   inkscape:export-xdpi="150"
   inkscape:export-ydpi="150">
  <defs
     id="defs4" />
  <sodipodi:namedview
     id="base"
     pagecolor="#ffffff"
     bordercolor="#666666"
     borderopacity="1.0"
     inkscape:pageopacity="0.0"
     inkscape:pageshadow="2"
     inkscape:zoom="0.7"
     inkscape:cx="232.56113"
     inkscape:cy="45.26072"
     inkscape:document-units="px"
     inkscape:current-layer="layer1"
     showgrid="true"
     inkscape:window-width="1600"
     inkscape:window-height="876"
     inkscape:window-x="0"
     inkscape:window-y="24"
     inkscape:window-maximized="1"
     fit-margin-top="1"
     fit-margin-left="1"
     fit-margin-bottom="1"
     fit-margin-right="1">
    <inkscape:grid
       type="xygrid"
       id="grid3338"
       units="mm"
       spacingx="7.0866142"
       spacingy="7.0866143"
       originy="-393.88299"
       enabled="false"
       originx="-16.338585" />
  </sodipodi:namedview>
  <metadata
     id="metadata7">
    <rdf:RDF>
      <cc:Work
         rdf:about="">
        <dc:format>image/svg+xml</dc:format>
        <dc:type
           rdf:resource="http://purl.org/dc/dcmitype/StillImage" />
        <dc:title></dc:title>
        <cc:license
           rdf:resource="http://creativecommons.org/licenses/by-nc/3.0/" />
      </cc:Work>
      <cc:License
         rdf:about="http://creativecommons.org/licenses/by-nc/3.0/">
        <cc:permits
           rdf:resource="http://creativecommons.org/ns#Reproduction" />
        <cc:permits
           rdf:resource="http://creativecommons.org/ns#Distribution" />
        <cc:requires
           rdf:resource="http://creativecommons.org/ns#Notice" />
        <cc:requires
           rdf:resource="http://creativecommons.org/ns#Attribution" />
        <cc:prohibits
           rdf:resource="http://creativecommons.org/ns#CommercialUse" />
        <cc:permits
           rdf:resource="http://creativecommons.org/ns#DerivativeWorks" />
      </cc:License>
    </rdf:RDF>
  </metadata>
  <g
     inkscape:label="Calque 1"
     inkscape:groupmode="layer"
     id="layer1"
     transform="translate(-16.338585,-342.15075)">
    <g
       id="g5402">
      <g
         id="g14571"
         transform="translate(-0.82725945,10.336891)">
        <g
           transform="translate(4,314)"
           id="card01">
          <rect
             inkscape:export-ydpi="300"
             inkscape:export-xdpi="300"
             inkscape:export-filename="/home/gbourel/Timeline/img-01a.png"
             ry="0"
             y="21.357147"
             x="16.709152"
             height="309.24185"
             width="212.59842"
             id="rect4366"
             style="opacity:1;fill:#ffffff;fill-opacity:1;stroke:none;stroke-width:2.20000005;stroke-miterlimit:4;stroke-dasharray:4.4, 4.4;stroke-dashoffset:0;stroke-opacity:1" />
          <path
             mask="none"
             inkscape:export-ydpi="299.97711"
             inkscape:export-xdpi="299.97711"
             inkscape:connector-curvature="0"
             id="path5358"
             d="m 38.418036,35.523374 c -4.474015,0 -8.075293,3.582165 -8.075293,8.032435 l 0,264.845361 c 0,4.45027 3.601278,8.03244 8.075293,8.03244 l 169.179824,0 c 4.47401,0 8.0753,-3.58217 8.0753,-8.03244 l 0,-264.845361 c 0,-4.45027 -3.60129,-8.032435 -8.0753,-8.032435 z"
             clip-path="none"
             style="opacity:1;fill:#ffffff;fill-opacity:1;stroke:#5a5a5a;stroke-width:0.49681497;stroke-linecap:round;stroke-linejoin:round;stroke-miterlimit:4;stroke-dasharray:none;stroke-dashoffset:0;stroke-opacity:1"
             sodipodi:nodetypes="sssssssss" />
          <path
             style="fill:#0084ff;fill-opacity:1;fill-rule:evenodd;stroke:none;stroke-width:1px;stroke-linecap:butt;stroke-linejoin:miter;stroke-opacity:1"
             d="m 39.067084,126.68183 c 0,-9.90305 22.643943,-19.34287 32.623043,-22.9999 6.880326,-2.52141 27.830763,-11.08862 50.984883,-11.08862 23.15412,0 49.26218,9.12459 59.17526,13.67674 8.21727,3.77339 25.09855,11.11042 25.09855,20.41178 0,10.80635 -16.28988,31.45362 -37.64987,67.44507 -21.36001,35.99145 -36.65749,65.45935 -49.82175,65.2355 C 106.31295,259.13855 94.38915,231.31115 73.767791,194.66267 53.146433,158.01416 39.067084,135.11954 39.067084,126.68183 Z"
             id="path5360"
             class="game-color"
             inkscape:connector-curvature="0"
             sodipodi:nodetypes="sszsszzzs" />
          <path
             sodipodi:nodetypes="sszsszzzs"
             inkscape:connector-curvature="0"
             id="path5362"
             class="game-color"
             d="m 41.490259,53.593044 c 0,-1.656251 3.787114,-3.235025 5.45608,-3.846646 1.150708,-0.421697 4.654588,-1.854532 8.527027,-1.854532 3.872438,0 8.238912,1.526053 9.896837,2.287382 1.374304,0.631086 4.197636,1.858177 4.197636,3.413796 0,1.807318 -2.724419,5.260495 -6.296799,11.279927 -3.572379,6.019429 -6.130822,10.947819 -8.332494,10.910384 -2.201672,-0.03741 -4.19588,-4.691457 -7.644725,-10.820777 -3.448844,-6.129323 -5.803562,-9.958362 -5.803562,-11.369534 z"
             style="fill:#0084ff;fill-opacity:1;fill-rule:evenodd;stroke:none;stroke-width:0.26162341px;stroke-linecap:butt;stroke-linejoin:miter;stroke-opacity:1" />
          <path
             style="fill:#0084ff;fill-opacity:1;fill-rule:evenodd;stroke:none;stroke-width:0.26162341px;stroke-linecap:butt;stroke-linejoin:miter;stroke-opacity:1"
             d="m 180.96906,283.99813 c 0,-1.65624 3.78711,-3.23502 5.45608,-3.84663 1.15071,-0.42171 4.65459,-1.85454 8.52703,-1.85454 3.87244,0 8.2389,1.52605 9.89684,2.28739 1.37429,0.63107 4.19764,1.85816 4.19764,3.41378 0,1.80732 -2.72442,5.2605 -6.29681,11.27993 -3.57238,6.01943 -6.13082,10.94782 -8.33249,10.91039 -2.20168,-0.0374 -4.19588,-4.69146 -7.64473,-10.82078 -3.44884,-6.12932 -5.80356,-9.95836 -5.80356,-11.36954 z"
             id="path5364"
             class="game-color"
             inkscape:connector-curvature="0"
             sodipodi:nodetypes="sszsszzzs" />
          <text
             xml:space="preserve"
             style="font-style:normal;font-variant:normal;font-weight:500;font-stretch:normal;font-size:20.18310547px;font-family:Ubuntu;-inkscape-font-specification:'Ubuntu Medium';text-align:center;text-anchor:middle;fill:#ffffff;fill-opacity:1;stroke:#474747;stroke-width:0.37261122;stroke-miterlimit:4;stroke-dasharray:none;stroke-opacity:1"
             x="122.18599"
             y="141.54311"
             id="text-title"
             sodipodi:linespacing="125%"
             transform="scale(1.0026642,0.99734287)">
             <tspan
               sodipodi:role="line"
               id="tspan5368"
               x="122"
               y="147">TITRE</tspan></text>
        </g>
      </g>
    </g>
  </g>
</svg>
